<mxfile host="app.diagrams.net" modified="2023-09-19T04:44:10.950Z" agent="Mozilla/5.0 (Windows NT 10.0; Win64; x64) AppleWebKit/537.36 (KHTML, like Gecko) Chrome/116.0.0.0 Safari/537.36" etag="Pmq8W8DmB1wDr5PiEuBs" version="21.7.5" type="github">
  <diagram name="Trang-1" id="PjSS2mnNPj3gOq39SILG">
    <mxGraphModel dx="1434" dy="750" grid="1" gridSize="10" guides="1" tooltips="1" connect="1" arrows="1" fold="1" page="1" pageScale="1" pageWidth="827" pageHeight="1169" math="0" shadow="0">
      <root>
        <mxCell id="0" />
        <mxCell id="1" parent="0" />
        <mxCell id="OWnNYwImV8tP4hauMsDG-8" value="" style="edgeStyle=orthogonalEdgeStyle;rounded=0;orthogonalLoop=1;jettySize=auto;html=1;" edge="1" parent="1" source="OWnNYwImV8tP4hauMsDG-2" target="OWnNYwImV8tP4hauMsDG-7">
          <mxGeometry relative="1" as="geometry" />
        </mxCell>
        <mxCell id="OWnNYwImV8tP4hauMsDG-2" value="Tạo người kí và người xem xét" style="rounded=0;whiteSpace=wrap;html=1;" vertex="1" parent="1">
          <mxGeometry x="70" y="110" width="120" height="60" as="geometry" />
        </mxCell>
        <mxCell id="OWnNYwImV8tP4hauMsDG-7" value="" style="whiteSpace=wrap;html=1;rounded=0;" vertex="1" parent="1">
          <mxGeometry x="270" y="110" width="120" height="60" as="geometry" />
        </mxCell>
      </root>
    </mxGraphModel>
  </diagram>
</mxfile>
